<svg width="193" height="153" viewBox="0 0 193 153" fill="none" xmlns="http://www.w3.org/2000/svg">
<path d="M134.041 29.8981L124.78 62.5279L135.786 59.1601L153.66 53.8251" stroke="black"/>
<path d="M87.3361 64.1374C85.7014 64.7966 70.9894 70.7292 63.8378 73.613L69.1993 81.2603L79.391 85.828L105.273 75.3911L117.899 61.6225" stroke="#96BB7C"/>
<path d="M169.594 92.5898L158.107 85.9411L152.164 72.597L127.627 61.2419" stroke="black"/>
<path d="M143.834 122.491L136.62 123.402L126.596 113.232L122.09 100.615L123.836 89.2514L120.957 65.9853" stroke="black"/>
<ellipse rx="2.10039" ry="1.95572" transform="matrix(0.927435 -0.373985 0.574065 0.81881 152.077 72.9504)" fill="black"/>
<ellipse rx="2.10039" ry="1.95572" transform="matrix(0.927435 -0.373985 0.574065 0.81881 158.549 85.746)" fill="black"/>
<ellipse rx="2.1004" ry="1.95572" transform="matrix(0.927435 -0.373985 0.574065 0.81881 169.594 92.5898)" fill="black"/>
<ellipse rx="2.1004" ry="1.95572" transform="matrix(0.927435 -0.373985 0.574065 0.81881 134.31 29.7892)" fill="black"/>
<ellipse rx="2.10039" ry="1.95572" transform="matrix(0.927435 -0.373985 0.574065 0.81881 105.11 75.457)" fill="#96BB7C"/>
<ellipse rx="2.10039" ry="1.95572" transform="matrix(0.927435 -0.373985 0.574065 0.81881 79.786 85.6686)" fill="#96BB7C"/>
<ellipse rx="2.10039" ry="1.95572" transform="matrix(0.927435 -0.373985 0.574065 0.81881 69.4513 81.6198)" fill="#96BB7C"/>
<ellipse rx="2.10039" ry="1.95572" transform="matrix(0.927435 -0.373985 0.574065 0.81881 63.8378 73.613)" fill="#96BB7C"/>
<ellipse rx="2.1004" ry="1.95572" transform="matrix(0.927435 -0.373985 0.574065 0.81881 87.2135 64.1867)" fill="#96BB7C"/>
<ellipse rx="2.1004" ry="1.95572" transform="matrix(0.927435 -0.373985 0.574065 0.81881 153.66 53.8249)" fill="black"/>
<ellipse rx="2.10039" ry="1.95572" transform="matrix(0.927435 -0.373985 0.574065 0.81881 139.876 57.3295)" fill="black"/>
<ellipse rx="2.1004" ry="1.95572" transform="matrix(0.927435 -0.373985 0.574065 0.81881 123.716 89.5219)" fill="black"/>
<ellipse rx="2.10039" ry="1.95572" transform="matrix(0.927435 -0.373985 0.574065 0.81881 122.512 100.278)" fill="black"/>
<ellipse rx="2.10039" ry="1.95572" transform="matrix(0.927435 -0.373985 0.574065 0.81881 126.475 113.059)" fill="black"/>
<ellipse rx="2.10039" ry="1.95572" transform="matrix(0.927435 -0.373985 0.574065 0.81881 136.282 123.483)" fill="black"/>
<ellipse rx="2.1004" ry="1.95572" transform="matrix(0.927435 -0.373985 0.574065 0.81881 145.196 121.942)" fill="black"/>
<path d="M132.574 62.2802C132.741 66.1771 128.647 69.2988 123.312 69.1605C117.976 69.0223 113.604 65.6812 113.436 61.7844C113.268 57.8875 117.362 54.7659 122.698 54.9041C128.033 55.0424 132.406 58.3834 132.574 62.2802Z" fill="#96BB7C" stroke="#96BB7C"/>
<path d="M2.96281 73.0432L2.96281 49.913L12.1715 49.913C14.3603 49.913 16.162 50.2103 17.5766 50.8051C18.9913 51.3999 20.0323 52.204 20.6996 53.2173C21.3936 54.2306 21.7406 55.3761 21.7406 56.6538C21.7406 57.9094 21.4069 59.0439 20.7396 60.0572C20.0723 61.0705 19.0314 61.8856 17.6167 62.5024C16.202 63.0972 14.387 63.3946 12.1715 63.3946L6.32599 63.3946L6.32599 73.0432L2.96281 73.0432ZM6.32599 61.0485L12.0915 61.0485C14.3336 61.0485 15.9217 60.663 16.856 59.892C17.8169 59.099 18.2973 58.0196 18.2973 56.6538C18.2973 55.266 17.8169 54.1865 16.856 53.4155C15.9217 52.6225 14.3336 52.226 12.0915 52.226L6.32599 52.226L6.32599 61.0485ZM33.7041 73.4397C31.809 73.4397 30.1274 73.0873 28.6593 72.3823C27.1913 71.6554 26.0302 70.6531 25.176 69.3754C24.3486 68.0977 23.9349 66.5888 23.9349 64.8485C23.9349 63.1302 24.3486 61.6323 25.176 60.3546C26.0035 59.0549 27.1512 58.0526 28.6193 57.3477C30.114 56.6207 31.8357 56.2573 33.7842 56.2573C35.706 56.2573 37.3609 56.6207 38.7489 57.3477C40.1636 58.0526 41.2446 58.9888 41.992 60.1564C42.7393 61.3239 43.113 62.5795 43.113 63.9233C43.113 64.1656 43.0997 64.4079 43.073 64.6502C43.073 64.8925 43.073 65.1679 43.073 65.4763L27.258 65.4763C27.3381 66.7319 27.6851 67.7783 28.299 68.6154C28.9396 69.4305 29.727 70.0473 30.6612 70.4658C31.6221 70.8844 32.6364 71.0937 33.7041 71.0937C35.0921 71.0937 36.2532 70.8293 37.1874 70.3006C38.1216 69.7719 38.8023 69.056 39.2293 68.1528L42.5525 68.1528C42.0187 69.6728 40.991 70.9394 39.4696 71.9528C37.9748 72.9441 36.053 73.4397 33.7041 73.4397ZM33.7041 58.6033C32.1026 58.6033 30.6746 59.0109 29.4201 59.8259C28.1922 60.619 27.4849 61.7865 27.298 63.3285L39.7899 63.3285C39.7098 61.8526 39.0959 60.6961 37.9481 59.859C36.8004 59.0219 35.3857 58.6033 33.7041 58.6033ZM47.5707 73.0432L47.5707 56.6538L50.6136 56.6538L50.8938 59.7929C51.5077 58.7135 52.442 57.8543 53.6965 57.2155C54.951 56.5767 56.4991 56.2573 58.3409 56.2573L58.3409 59.1651L57.42 59.1651C56.2456 59.1651 55.1645 59.3413 54.1769 59.6937C53.1893 60.0242 52.4019 60.5969 51.8147 61.412C51.2275 62.2271 50.9339 63.3505 50.9339 64.7824L50.9339 73.0432L47.5707 73.0432ZM69.7229 73.4397C67.3473 73.4397 65.3721 72.9441 63.7973 71.9528C62.2225 70.9615 61.3016 69.6177 61.0347 67.9215L64.4779 67.9215C64.6915 68.7806 65.2387 69.5296 66.1195 70.1684C67.027 70.7852 68.2415 71.0937 69.763 71.0937C71.1776 71.0937 72.2186 70.8513 72.8859 70.3667C73.5532 69.86 73.8869 69.2653 73.8869 68.5824C73.8869 67.5911 73.4464 66.9302 72.5656 66.5998C71.7115 66.2693 70.497 65.972 68.9222 65.7076C67.8545 65.5314 66.7868 65.278 65.7191 64.9476C64.6514 64.6172 63.7573 64.1546 63.0366 63.5598C62.3159 62.943 61.9556 62.1389 61.9556 61.1476C61.9556 59.7158 62.5962 58.5482 63.8774 57.6451C65.1853 56.7199 66.947 56.2573 69.1624 56.2573C71.271 56.2573 72.9927 56.6978 74.3273 57.579C75.6886 58.4381 76.476 59.6717 76.6895 61.2798L73.3664 61.2798C73.2329 60.4427 72.7925 59.7929 72.0451 59.3303C71.3244 58.8456 70.3502 58.6033 69.1223 58.6033C67.9212 58.6033 66.987 58.8126 66.3197 59.2311C65.6791 59.6497 65.3588 60.2004 65.3588 60.8833C65.3588 61.5442 65.7725 62.0618 66.6 62.4363C67.4541 62.8108 68.6019 63.1302 70.0432 63.3946C71.271 63.6149 72.4321 63.8902 73.5265 64.2207C74.6476 64.5291 75.5551 65.0027 76.2491 65.6415C76.9698 66.2583 77.3301 67.1615 77.3301 68.3511C77.3568 69.827 76.6762 71.0496 75.2882 72.0189C73.9269 72.9661 72.0718 73.4397 69.7229 73.4397ZM91.0631 73.4397C89.168 73.4397 87.4864 73.0873 86.0183 72.3823C84.5503 71.6554 83.3892 70.6531 82.535 69.3754C81.7076 68.0977 81.2939 66.5888 81.2939 64.8485C81.2939 63.1302 81.7076 61.6323 82.535 60.3546C83.3625 59.0549 84.5103 58.0526 85.9783 57.3477C87.4731 56.6207 89.1947 56.2573 91.1432 56.2573C93.065 56.2573 94.7199 56.6207 96.1079 57.3477C97.5226 58.0526 98.6036 58.9888 99.351 60.1564C100.098 61.3239 100.472 62.5795 100.472 63.9233C100.472 64.1656 100.459 64.4079 100.432 64.6502C100.432 64.8925 100.432 65.1679 100.432 65.4763L84.617 65.4763C84.6971 66.7319 85.0441 67.7783 85.658 68.6154C86.2986 69.4305 87.086 70.0473 88.0202 70.4658C88.9812 70.8844 89.9954 71.0937 91.0631 71.0937C92.4511 71.0937 93.6122 70.8293 94.5464 70.3006C95.4806 69.7719 96.1613 69.056 96.5884 68.1528L99.9115 68.1528C99.3777 69.6728 98.35 70.9394 96.8286 71.9528C95.3338 72.9441 93.412 73.4397 91.0631 73.4397ZM91.0631 58.6033C89.4616 58.6033 88.0336 59.0109 86.7791 59.8259C85.5512 60.619 84.8439 61.7865 84.6571 63.3285L97.1489 63.3285C97.0688 61.8526 96.4549 60.6961 95.3071 59.859C94.1594 59.0219 92.7447 58.6033 91.0631 58.6033ZM113.978 73.4397C112.11 73.4397 110.428 73.0873 108.933 72.3823C107.439 71.6774 106.251 70.6861 105.37 69.4084C104.516 68.1087 104.089 66.5888 104.089 64.8485C104.089 63.1082 104.529 61.5992 105.41 60.3216C106.291 59.0219 107.479 58.0196 108.974 57.3146C110.495 56.6097 112.19 56.2573 114.058 56.2573C115.927 56.2573 117.608 56.6097 119.103 57.3146C120.598 58.0196 121.772 59.0219 122.626 60.3216C123.507 61.5992 123.948 63.1082 123.948 64.8485C123.948 66.5888 123.507 68.1087 122.626 69.4084C121.746 70.6861 120.544 71.6774 119.023 72.3823C117.528 73.0873 115.847 73.4397 113.978 73.4397ZM113.978 71.0606C115.126 71.0606 116.194 70.8293 117.181 70.3667C118.169 69.9041 118.97 69.2102 119.584 68.285C120.197 67.3598 120.504 66.2143 120.504 64.8485C120.504 63.4827 120.197 62.3372 119.584 61.412C118.996 60.4868 118.209 59.7929 117.221 59.3303C116.234 58.8677 115.179 58.6364 114.058 58.6364C112.911 58.6364 111.843 58.8677 110.855 59.3303C109.868 59.7929 109.067 60.4868 108.453 61.412C107.839 62.3372 107.532 63.4827 107.532 64.8485C107.532 66.2143 107.839 67.3598 108.453 68.285C109.067 69.2102 109.854 69.9041 110.815 70.3667C111.803 70.8293 112.857 71.0606 113.978 71.0606Z" fill="black"/>
</svg>
